{
  "accessors": [
    {
      "bufferView": 2,
      "componentType": 5126,
      "count": 1386,
      "max": [
        99.901992797851562,
        99.901985168457031,
        100
      ],
      "min": [
        -99.901985168457031,
        -99.901992797851562,
        -100
      ],
      "type": "VEC3"
    },
    {
      "bufferView": 2,
      "byteOffset": 16632,
      "componentType": 5126,
      "count": 1386,
      "max": [
        1,
        1,
        1
      ],
      "min": [
        -1,
        -1,
        -1
      ],
      "type": "VEC3"
    },
    {
      "bufferView": 3,
      "componentType": 5126,
      "count": 1386,
      "max": [
        1,
        1,
        0.90194666385650635,
        1
      ],
      "min": [
        -1,
        -1,
        -0.90194356441497803,
        -1
      ],
      "type": "VEC4"
    },
    {
      "bufferView": 1,
      "componentType": 5126,
      "count": 1386,
      "max": [
        1.1289365291595459,
        1
      ],
      "min": [
        0,
        -1.1920928955078125e-07
      ],
      "type": "VEC2"
    },
    {
      "bufferView": 0,
      "componentType": 5125,
      "count": 3654,
      "max": [
        1385
      ],
      "min": [
        0
      ],
      "type": "SCALAR"
    },
    {
      "bufferView": 2,
      "byteOffset": 33264,
      "componentType": 5126,
      "count": 981,
      "max": [
        25.042329788208008,
        -62.768989562988281,
        64.859375
      ],
      "min": [
        -25.07255744934082,
        -96.035171508789062,
        16.636646270751953
      ],
      "type": "VEC3"
    },
    {
      "bufferView": 2,
      "byteOffset": 45036,
      "componentType": 5126,
      "count": 981,
      "max": [
        0.99999570846557617,
        0.51149654388427734,
        0.99221193790435791
      ],
      "min": [
        -0.99991142749786377,
        -0.99957138299942017,
        -0.94469642639160156
      ],
      "type": "VEC3"
    },
    {
      "bufferView": 3,
      "byteOffset": 22176,
      "componentType": 5126,
      "count": 981,
      "max": [
        1,
        0.46456539630889893,
        0.92400598526000977,
        -1
      ],
      "min": [
        -1,
        -0.46546921133995056,
        -0.92443746328353882,
        -1
      ],
      "type": "VEC4"
    },
    {
      "bufferView": 1,
      "byteOffset": 11088,
      "componentType": 5126,
      "count": 981,
      "max": [
        1.0000002384185791,
        0.56250011920928955
      ],
      "min": [
        -4.1275893636338878e-07,
        -1.1920928955078125e-07
      ],
      "type": "VEC2"
    },
    {
      "bufferView": 0,
      "byteOffset": 14616,
      "componentType": 5125,
      "count": 1662,
      "max": [
        980
      ],
      "min": [
        0
      ],
      "type": "SCALAR"
    },
    {
      "bufferView": 2,
      "byteOffset": 56808,
      "componentType": 5126,
      "count": 640,
      "max": [
        26.572820663452148,
        -73.9110107421875,
        66.875923156738281
      ],
      "min": [
        -26.572816848754883,
        -97.697586059570312,
        18.875543594360352
      ],
      "type": "VEC3"
    },
    {
      "bufferView": 2,
      "byteOffset": 64488,
      "componentType": 5126,
      "count": 640,
      "max": [
        0.99808073043823242,
        0.51149654388427734,
        0.99986714124679565
      ],
      "min": [
        -0.99811840057373047,
        -0.99987035989761353,
        -0.94469642639160156
      ],
      "type": "VEC3"
    },
    {
      "bufferView": 3,
      "byteOffset": 37872,
      "componentType": 5126,
      "count": 640,
      "max": [
        0.99515682458877563,
        0.99998313188552856,
        0.15760140120983124,
        1
      ],
      "min": [
        -0.1467537134885788,
        -0.99998378753662109,
        -0.36893108487129211,
        1
      ],
      "type": "VEC4"
    },
    {
      "bufferView": 1,
      "byteOffset": 18936,
      "componentType": 5126,
      "count": 640,
      "max": [
        0.99947845935821533,
        0.99799996614456177
      ],
      "min": [
        -4.1275893636338878e-07,
        0.0020000000949949026
      ],
      "type": "VEC2"
    },
    {
      "bufferView": 0,
      "byteOffset": 21264,
      "componentType": 5125,
      "count": 1764,
      "max": [
        639
      ],
      "min": [
        0
      ],
      "type": "SCALAR"
    },
    {
      "bufferView": 4,
      "componentType": 5126,
      "count": 501,
      "max": [
        16.666666030883789
      ],
      "min": [
        0
      ],
      "type": "SCALAR"
    },
    {
      "bufferView": 5,
      "componentType": 5126,
      "count": 501,
      "max": [
        0.88643091917037964,
        0.46286022663116455,
        0.88642972707748413,
        0.30619367957115173
      ],
      "min": [
        -0.62468487024307251,
        -0.34457287192344666,
        -0.62373650074005127,
        -0.46286079287528992
      ],
      "type": "VEC4"
    }
  ],
  "animations": [
    {
      "channels": [
        {
          "sampler": 0,
          "target": {
            "node": 5,
            "path": "rotation"
          }
        }
      ],
      "name": "Take 001",
      "samplers": [
        {
          "input": 15,
          "interpolation": "LINEAR",
          "output": 16
        }
      ]
    }
  ],
  "asset": {
    "extras": {
      "author": "Anthony Yanez (https://sketchfab.com/paulyanez)",
      "license": "CC-BY-4.0 (http://creativecommons.org/licenses/by/4.0/)",
      "source": "https://sketchfab.com/models/699e5f635f7a4b21a4c0d2e3f5b68324",
      "title": "Death Star (Star Wars)"
    },
    "generator": "Sketchfab-3.46.1",
    "version": "2.0"
  },
  "bufferViews": [
    {
      "buffer": 0,
      "byteLength": 28320,
      "byteOffset": 0,
      "name": "floatBufferViews",
      "target": 34963
    },
    {
      "buffer": 0,
      "byteLength": 24056,
      "byteOffset": 28320,
      "byteStride": 8,
      "name": "floatBufferViews",
      "target": 34962
    },
    {
      "buffer": 0,
      "byteLength": 72168,
      "byteOffset": 52376,
      "byteStride": 12,
      "name": "floatBufferViews",
      "target": 34962
    },
    {
      "buffer": 0,
      "byteLength": 48112,
      "byteOffset": 124544,
      "byteStride": 16,
      "name": "floatBufferViews",
      "target": 34962
    },
    {
      "buffer": 0,
      "byteLength": 2004,
      "byteOffset": 172656,
      "name": "floatBufferViews"
    },
    {
      "buffer": 0,
      "byteLength": 8016,
      "byteOffset": 174660,
      "byteStride": 16,
      "name": "floatBufferViews"
    }
  ],
  "buffers": [
    {
      "byteLength": 182676,
      "uri": "scene.bin"
    }
  ],
  "images": [
    {
      "uri": "textures/03_-_Default_baseColor.jpeg"
    },
    {
      "uri": "textures/03_-_Default_normal.png"
    },
    {
      "uri": "textures/02_-_Default_baseColor.jpeg"
    },
    {
      "uri": "textures/02_-_Default_normal.png"
    }
  ],
  "materials": [
    {
      "doubleSided": true,
      "emissiveFactor": [
        0,
        0,
        0
      ],
      "name": "03_-_Default",
      "normalTexture": {
        "index": 1,
        "scale": 1,
        "texCoord": 0
      },
      "pbrMetallicRoughness": {
        "baseColorFactor": [
          1,
          1,
          1,
          1
        ],
        "baseColorTexture": {
          "index": 0,
          "texCoord": 0
        },
        "metallicFactor": 1,
        "roughnessFactor": 0.69999999999999996
      }
    },
    {
      "doubleSided": true,
      "emissiveFactor": [
        0,
        0,
        0
      ],
      "name": "02_-_Default",
      "normalTexture": {
        "index": 3,
        "scale": 1,
        "texCoord": 0
      },
      "pbrMetallicRoughness": {
        "baseColorFactor": [
          1,
          1,
          1,
          1
        ],
        "baseColorTexture": {
          "index": 2,
          "texCoord": 0
        },
        "metallicFactor": 0,
        "roughnessFactor": 0
      }
    },
    {
      "doubleSided": true,
      "emissiveFactor": [
        0,
        0,
        0
      ],
      "name": "07_-_Default",
      "pbrMetallicRoughness": {
        "baseColorFactor": [
          0.13333300000000001,
          0.13333300000000001,
          0.13333300000000001,
          1
        ],
        "metallicFactor": 0.92854420729999998,
        "roughnessFactor": 0.2177972561
      }
    }
  ],
  "meshes": [
    {
      "name": "Death Star_03 - Default_0",
      "primitives": [
        {
          "attributes": {
            "NORMAL": 1,
            "POSITION": 0,
            "TANGENT": 2,
            "TEXCOORD_0": 3
          },
          "indices": 4,
          "material": 0,
          "mode": 4
        }
      ]
    },
    {
      "name": "Death Star_02 - Default_0",
      "primitives": [
        {
          "attributes": {
            "NORMAL": 6,
            "POSITION": 5,
            "TANGENT": 7,
            "TEXCOORD_0": 8
          },
          "indices": 9,
          "material": 1,
          "mode": 4
        }
      ]
    },
    {
      "name": "Death Star_07 - Default_0",
      "primitives": [
        {
          "attributes": {
            "NORMAL": 11,
            "POSITION": 10,
            "TANGENT": 12,
            "TEXCOORD_0": 13
          },
          "indices": 14,
          "material": 2,
          "mode": 4
        }
      ]
    }
  ],
  "nodes": [
    {
      "children": [
        1
      ],
      "name": "RootNode (gltf orientation matrix)",
      "rotation": [
        -0.70710678118654746,
        -0,
        -0,
        0.70710678118654757
      ]
    },
    {
      "children": [
        2
      ],
      "name": "RootNode (model correction matrix)"
    },
    {
      "children": [
        3
      ],
      "matrix": [
        1,
        0,
        0,
        0,
        0,
        0,
        1,
        0,
        0,
        -1,
        0,
        0,
        0,
        0,
        0,
        1
      ],
      "name": "Death Star.FBX"
    },
    {
      "children": [
        4
      ],
      "name": ""
    },
    {
      "children": [
        5
      ],
      "name": "RootNode"
    },
    {
      "children": [
        6
      ],
      "name": "Death Star",
      "rotation": [
        0.88624835014343262,
        -0.017991432920098305,
        0.017991434782743454,
        -0.46251103281974792
      ],
      "scale": [
        3.5832250118255615,
        3.5832250118255615,
        3.5832250118255615
      ],
      "translation": [
        -2.7816519737243652,
        19.208181381225586,
        -1.3017817735671997
      ]
    },
    {
      "children": [
        7,
        8,
        9
      ],
      "matrix": [
        0.9987052327815733,
        -0.015247286424584802,
        0.048532239505202822,
        0,
        -0.015247279658557735,
        0.8204467669236637,
        0.57151957368713224,
        0,
        -0.048532241630872865,
        -0.57151957350662475,
        0.81915199970523689,
        0,
        -5.1280494517413899e-08,
        -6.0388720157789066e-07,
        2.0098250388400629e-06,
        1
      ],
      "name": ""
    },
    {
      "mesh": 0,
      "name": "Death Star_03 - Default_0"
    },
    {
      "mesh": 1,
      "name": "Death Star_02 - Default_0"
    },
    {
      "mesh": 2,
      "name": "Death Star_07 - Default_0"
    }
  ],
  "samplers": [
    {
      "magFilter": 9729,
      "minFilter": 9987,
      "wrapS": 10497,
      "wrapT": 10497
    }
  ],
  "scene": 0,
  "scenes": [
    {
      "name": "OSG_Scene",
      "nodes": [
        0
      ]
    }
  ],
  "textures": [
    {
      "sampler": 0,
      "source": 0
    },
    {
      "sampler": 0,
      "source": 1
    },
    {
      "sampler": 0,
      "source": 2
    },
    {
      "sampler": 0,
      "source": 3
    }
  ]
}

